<svg width="100" height="100" viewBox="0 0 100 100" fill="none" xmlns="http://www.w3.org/2000/svg">
<path d="M37.2024 71.9246L71.9246 49.6032L37.2024 27.2818V71.9246ZM49.6032 99.2064C42.7414 99.2064 36.293 97.9051 30.2579 95.3026C24.2229 92.7001 18.9732 89.165 14.5089 84.6974C10.0446 80.2331 6.51124 74.9835 3.90873 68.9484C1.30622 62.9134 0.00330688 56.465 0 49.6032C0 42.7414 1.30291 36.293 3.90873 30.2579C6.51455 24.2229 10.048 18.9732 14.5089 14.5089C18.9732 10.0446 24.2229 6.50959 30.2579 3.90377C36.293 1.29795 42.7414 -0.00330059 49.6032 6.28685e-06C56.465 6.28685e-06 62.9134 1.30292 68.9484 3.90874C74.9835 6.51456 80.2331 10.048 84.6974 14.5089C89.1617 18.9732 92.6968 24.2229 95.3026 30.2579C97.9084 36.293 99.2097 42.7414 99.2064 49.6032C99.2064 56.465 97.9034 62.9134 95.2976 68.9484C92.6918 74.9835 89.1584 80.2331 84.6974 84.6974C80.2331 89.1617 74.9835 92.6968 68.9484 95.3026C62.9134 97.9084 56.465 99.2097 49.6032 99.2064Z" fill="#FAA525"/>
</svg>
