<svg width="14" height="23" viewBox="0 0 14 23" fill="none" xmlns="http://www.w3.org/2000/svg">
<path d="M5 19.5H9V18.5H5V19.5ZM2 22.5C1.45 22.5 0.979002 22.3043 0.587002 21.913C0.195002 21.5217 -0.000664969 21.0507 1.69779e-06 20.5V2.5C1.69779e-06 1.95 0.196001 1.47933 0.588001 1.088C0.980001 0.696666 1.45067 0.500667 2 0.5H12C12.55 0.5 13.021 0.696 13.413 1.088C13.805 1.48 14.0007 1.95067 14 2.5V20.5C14 21.05 13.804 21.521 13.412 21.913C13.02 22.305 12.5493 22.5007 12 22.5H2ZM2 15.5H12V5.5H2V15.5Z" fill="#FAA525"/>
</svg>
