<svg width="132" height="23" viewBox="0 0 132 23" fill="none" xmlns="http://www.w3.org/2000/svg">
<path d="M0.49 22V0.999999H9.58C11.46 0.999999 13.08 1.31 14.44 1.93C15.8 2.53 16.85 3.4 17.59 4.54C18.33 5.68 18.7 7.04 18.7 8.62C18.7 10.18 18.33 11.53 17.59 12.67C16.85 13.81 15.8 14.69 14.44 15.31C13.08 15.91 11.46 16.21 9.58 16.21H3.19L5.35 14.02V22H0.49ZM5.35 14.56L3.19 12.25H9.31C10.81 12.25 11.93 11.93 12.67 11.29C13.41 10.65 13.78 9.76 13.78 8.62C13.78 7.46 13.41 6.56 12.67 5.92C11.93 5.28 10.81 4.96 9.31 4.96H3.19L5.35 2.65V14.56ZM32.5127 22.36C30.8927 22.36 29.3827 22.1 27.9827 21.58C26.6027 21.04 25.4027 20.28 24.3827 19.3C23.3627 18.32 22.5627 17.17 21.9827 15.85C21.4227 14.53 21.1427 13.08 21.1427 11.5C21.1427 9.92 21.4227 8.47 21.9827 7.15C22.5627 5.83 23.3627 4.68 24.3827 3.7C25.4227 2.72 26.6327 1.97 28.0127 1.45C29.3927 0.909999 30.9027 0.64 32.5427 0.64C34.3627 0.64 36.0027 0.96 37.4627 1.6C38.9427 2.22 40.1827 3.14 41.1827 4.36L38.0627 7.24C37.3427 6.42 36.5427 5.81 35.6627 5.41C34.7827 4.99 33.8227 4.78 32.7827 4.78C31.8027 4.78 30.9027 4.94 30.0827 5.26C29.2627 5.58 28.5527 6.04 27.9527 6.64C27.3527 7.24 26.8827 7.95 26.5427 8.77C26.2227 9.59 26.0627 10.5 26.0627 11.5C26.0627 12.5 26.2227 13.41 26.5427 14.23C26.8827 15.05 27.3527 15.76 27.9527 16.36C28.5527 16.96 29.2627 17.42 30.0827 17.74C30.9027 18.06 31.8027 18.22 32.7827 18.22C33.8227 18.22 34.7827 18.02 35.6627 17.62C36.5427 17.2 37.3427 16.57 38.0627 15.73L41.1827 18.61C40.1827 19.83 38.9427 20.76 37.4627 21.4C36.0027 22.04 34.3527 22.36 32.5127 22.36Z" fill="#FAA525"/>
<path d="M51.3646 22.36C49.6846 22.36 48.0746 22.14 46.5346 21.7C44.9946 21.24 43.7546 20.65 42.8146 19.93L44.4646 16.27C45.3646 16.91 46.4246 17.44 47.6446 17.86C48.8846 18.26 50.1346 18.46 51.3946 18.46C52.3546 18.46 53.1246 18.37 53.7046 18.19C54.3046 17.99 54.7446 17.72 55.0246 17.38C55.3046 17.04 55.4446 16.65 55.4446 16.21C55.4446 15.65 55.2246 15.21 54.7846 14.89C54.3446 14.55 53.7646 14.28 53.0446 14.08C52.3246 13.86 51.5246 13.66 50.6446 13.48C49.7846 13.28 48.9146 13.04 48.0346 12.76C47.1746 12.48 46.3846 12.12 45.6646 11.68C44.9446 11.24 44.3546 10.66 43.8946 9.94C43.4546 9.22 43.2346 8.3 43.2346 7.18C43.2346 5.98 43.5546 4.89 44.1946 3.91C44.8546 2.91 45.8346 2.12 47.1346 1.54C48.4546 0.939999 50.1046 0.64 52.0846 0.64C53.4046 0.64 54.7046 0.799999 55.9846 1.12C57.2646 1.42 58.3946 1.88 59.3746 2.5L57.8746 6.19C56.8946 5.63 55.9146 5.22 54.9346 4.96C53.9546 4.68 52.9946 4.54 52.0546 4.54C51.1146 4.54 50.3446 4.65 49.7446 4.87C49.1446 5.09 48.7146 5.38 48.4546 5.74C48.1946 6.08 48.0646 6.48 48.0646 6.94C48.0646 7.48 48.2846 7.92 48.7246 8.26C49.1646 8.58 49.7446 8.84 50.4646 9.04C51.1846 9.24 51.9746 9.44 52.8346 9.64C53.7146 9.84 54.5846 10.07 55.4446 10.33C56.3246 10.59 57.1246 10.94 57.8446 11.38C58.5646 11.82 59.1446 12.4 59.5846 13.12C60.0446 13.84 60.2746 14.75 60.2746 15.85C60.2746 17.03 59.9446 18.11 59.2846 19.09C58.6246 20.07 57.6346 20.86 56.3146 21.46C55.0146 22.06 53.3646 22.36 51.3646 22.36ZM77.9955 0.999999H82.8555V22H77.9955V0.999999ZM68.4555 22H63.5955V0.999999H68.4555V22ZM78.3555 13.39H68.0955V9.28H78.3555V13.39ZM98.024 22.36C96.364 22.36 94.824 22.09 93.404 21.55C92.004 21.01 90.784 20.25 89.744 19.27C88.724 18.29 87.924 17.14 87.344 15.82C86.784 14.5 86.504 13.06 86.504 11.5C86.504 9.94 86.784 8.5 87.344 7.18C87.924 5.86 88.734 4.71 89.774 3.73C90.814 2.75 92.034 1.99 93.434 1.45C94.834 0.909999 96.354 0.64 97.994 0.64C99.654 0.64 101.174 0.909999 102.554 1.45C103.954 1.99 105.164 2.75 106.184 3.73C107.224 4.71 108.034 5.86 108.614 7.18C109.194 8.48 109.484 9.92 109.484 11.5C109.484 13.06 109.194 14.51 108.614 15.85C108.034 17.17 107.224 18.32 106.184 19.3C105.164 20.26 103.954 21.01 102.554 21.55C101.174 22.09 99.664 22.36 98.024 22.36ZM97.994 18.22C98.934 18.22 99.794 18.06 100.574 17.74C101.374 17.42 102.074 16.96 102.674 16.36C103.274 15.76 103.734 15.05 104.054 14.23C104.394 13.41 104.564 12.5 104.564 11.5C104.564 10.5 104.394 9.59 104.054 8.77C103.734 7.95 103.274 7.24 102.674 6.64C102.094 6.04 101.404 5.58 100.604 5.26C99.804 4.94 98.934 4.78 97.994 4.78C97.054 4.78 96.184 4.94 95.384 5.26C94.604 5.58 93.914 6.04 93.314 6.64C92.714 7.24 92.244 7.95 91.904 8.77C91.584 9.59 91.424 10.5 91.424 11.5C91.424 12.48 91.584 13.39 91.904 14.23C92.244 15.05 92.704 15.76 93.284 16.36C93.884 16.96 94.584 17.42 95.384 17.74C96.184 18.06 97.054 18.22 97.994 18.22ZM113.136 22V0.999999H122.226C124.106 0.999999 125.726 1.31 127.086 1.93C128.446 2.53 129.496 3.4 130.236 4.54C130.976 5.68 131.346 7.04 131.346 8.62C131.346 10.18 130.976 11.53 130.236 12.67C129.496 13.81 128.446 14.69 127.086 15.31C125.726 15.91 124.106 16.21 122.226 16.21H115.836L117.996 14.02V22H113.136ZM117.996 14.56L115.836 12.25H121.956C123.456 12.25 124.576 11.93 125.316 11.29C126.056 10.65 126.426 9.76 126.426 8.62C126.426 7.46 126.056 6.56 125.316 5.92C124.576 5.28 123.456 4.96 121.956 4.96H115.836L117.996 2.65V14.56Z" fill="white"/>
</svg>
